<svg class="hidden">
<!-- Github Icon -->
  <symbol id="githubIcon" xmlns="http://www.w3.org/2000/svg" viewBox="0 0 48 48">
    <defs></defs>
    <path d="M24,2.5a21.5,21.5,0,0,0-6.8,41.9c1.08.2,1.47-.46,1.47-1s0-1.86,0-3.65c-6,1.3-7.24-2.88-7.24-2.88A5.7,5.7,0,0,0,9,33.68c-1.95-1.33.15-1.31.15-1.31a4.52,4.52,0,0,1,3.29,2.22c1.92,3.29,5,2.34,6.26,1.79a4.61,4.61,0,0,1,1.37-2.88c-4.78-.54-9.8-2.38-9.8-10.62a8.29,8.29,0,0,1,2.22-5.77,7.68,7.68,0,0,1,.21-5.69s1.8-.58,5.91,2.2a20.46,20.46,0,0,1,10.76,0c4.11-2.78,5.91-2.2,5.91-2.2a7.74,7.74,0,0,1,.21,5.69,8.28,8.28,0,0,1,2.21,5.77c0,8.26-5,10.07-9.81,10.61a5.12,5.12,0,0,1,1.46,4c0,2.87,0,5.19,0,5.9s.39,1.24,1.48,1A21.5,21.5,0,0,0,24,2.5"></path>
  </symbol>
<!-- Linkedin Icon -->
  <symbol version="1.1" id="linkedinIcon" xmlns="http://www.w3.org/2000/svg" xmlns:xlink="http://www.w3.org/1999/xlink" xml:space="preserve" viewBox="0 0 382 382">
    <path d="M347.445,0H34.555C15.471,0,0,15.471,0,34.555v312.889C0,366.529,15.471,382,34.555,382h312.889
	C366.529,382,382,366.529,382,347.444V34.555C382,15.471,366.529,0,347.445,0z M118.207,329.844c0,5.554-4.502,10.056-10.056,10.056
	H65.345c-5.554,0-10.056-4.502-10.056-10.056V150.403c0-5.554,4.502-10.056,10.056-10.056h42.806
	c5.554,0,10.056,4.502,10.056,10.056V329.844z M86.748,123.432c-22.459,0-40.666-18.207-40.666-40.666S64.289,42.1,86.748,42.1
	s40.666,18.207,40.666,40.666S109.208,123.432,86.748,123.432z M341.91,330.654c0,5.106-4.14,9.246-9.246,9.246H286.73
	c-5.106,0-9.246-4.14-9.246-9.246v-84.168c0-12.556,3.683-55.021-32.813-55.021c-28.309,0-34.051,29.066-35.204,42.11v97.079
	c0,5.106-4.139,9.246-9.246,9.246h-44.426c-5.106,0-9.246-4.14-9.246-9.246V149.593c0-5.106,4.14-9.246,9.246-9.246h44.426
	c5.106,0,9.246,4.14,9.246,9.246v15.655c10.497-15.753,26.097-27.912,59.312-27.912c73.552,0,73.131,68.716,73.131,106.472
	L341.91,330.654L341.91,330.654z"></path>
  </symbol>
  <!-- Email Icon -->
 <symbol id="emailIcon" fill="none" xmlns="http://www.w3.org/2000/svg" viewBox="0 0 24 24">
    <path d="M4 7.00005L10.2 11.65C11.2667 12.45 12.7333 12.45 13.8 11.65L20 7" stroke="#000000" stroke-width="2" stroke-linecap="round" stroke-linejoin="round"></path>
    <rect x="3" y="5" width="18" height="14" rx="2" stroke="#000000" stroke-width="2" stroke-linecap="round"></rect>
  </symbol>
</svg>
